# Blender v2.78 (sub 0) OBJ File: 'long_house_blender_export_f.blend'
# www.blender.org
mtllib long_house_blender_export.mtl
o Cube

g long_house

v 1.000000 0.000000 -1.000000
v 1.000000 0.000000 1.000000
v -1.000000 0.000000 1.000000
v -1.000000 0.000000 -1.000000
v 1.000000 1.500000 -0.999999
v 0.999999 1.500000 1.000001
v -1.000000 1.500000 1.000000
v -1.000000 1.500000 -1.000000
v -0.000000 2.500000 0.000000
v 1.295001 1.205000 -1.294999
v 1.294999 1.205000 1.295001
v -1.295000 1.205000 1.294999
v -1.295000 1.205000 -1.295000
v 1.000000 0.000000 3.000000
v -1.000000 0.000000 3.000000
v 0.999999 1.500000 3.000000
v -1.000000 1.500000 3.000000
v -0.000000 2.500000 2.000000
v 1.294999 1.205000 3.295001
v -1.295000 1.205000 3.294999
v 1.000000 0.000000 0.000000
v 0.000000 0.000000 -1.000000
v 1.000000 0.750000 -1.000000
v 0.000000 0.000000 1.000000
v 1.000000 0.750000 1.000000
v -1.000000 0.000000 -0.000000
v -1.000000 0.750000 1.000000
v -1.000000 0.750000 -1.000000
v 1.000000 1.500000 0.000001
v 0.000000 1.500000 -1.000000
v -1.000000 1.500000 2.000000
v -1.000000 1.500000 -0.000000
v 0.500000 2.000000 -0.500000
v -0.500000 2.000000 0.500000
v -0.500000 2.000000 -0.500000
v 0.500000 2.000000 0.500000
v 1.295000 1.205000 0.000001
v 0.000000 1.205000 -1.295000
v -1.295000 1.205000 -0.000000
v -1.147500 1.352500 -1.147500
v -1.147500 1.352500 1.147500
v 1.147501 1.352500 -1.147499
v 1.147499 1.352500 1.147501
v 0.000000 0.000000 3.000000
v 1.000000 0.750000 3.000000
v -1.000000 0.750000 3.000000
v -0.000001 1.500000 3.000000
v -0.500000 2.000000 2.500000
v 0.500000 2.000000 2.500000
v -0.000001 1.205000 3.295000
v -1.147500 1.352500 3.147500
v 1.147499 1.352500 3.147501
v -0.000000 2.500000 1.000000
v 1.294999 1.205000 2.295001
v -1.295000 1.205000 2.294999
v 1.000000 0.000000 2.000000
v -1.000000 0.000000 2.000000
v 0.999999 1.500000 2.000000
v 1.000000 0.750000 2.000000
v 0.500000 2.000000 1.500000
v -1.000000 0.750000 2.000000
v -1.147500 1.352500 2.147500
v 1.147499 1.352500 2.147501
v -0.000001 1.352500 3.147500
v 0.900000 0.375000 1.000000
v 1.147500 1.352500 0.000001
v -0.500000 2.000000 1.500000
v 0.000000 1.352500 -1.147500
v -1.147500 1.352500 -0.000000
v 0.500000 0.750000 2.900000
v -1.000000 0.750000 -0.000000
v 0.000000 0.000000 2.000000
v 0.000000 0.000000 -0.000000
v 1.000000 0.000000 0.500000
v -0.500000 0.000000 -1.000000
v 1.000000 1.125000 -1.000000
v -0.500000 0.000000 1.000000
v 1.000000 1.125000 1.000000
v -1.000000 0.000000 -0.500000
v -1.000000 1.125000 1.000000
v -1.000000 1.125000 -1.000000
v 1.000000 1.500000 0.500001
v -0.500000 1.500000 -1.000000
v -1.000000 1.500000 2.500000
v -1.000000 1.500000 -0.500000
v 0.750000 1.750000 -0.750000
v -0.250000 2.250000 0.250000
v -0.750000 1.750000 -0.750000
v 0.250000 2.250000 0.250000
v 1.294999 1.205000 0.647501
v -0.647500 1.205000 -1.295000
v -1.295000 1.205000 -0.647500
v -1.073750 1.426250 -1.073750
v -1.221250 1.278750 1.221249
v 1.221251 1.278750 -1.221249
v 1.073749 1.426250 1.073751
v -0.500000 0.000000 3.000000
v 1.000000 1.125000 3.000000
v -1.000000 1.125000 3.000000
v -0.500000 1.500000 3.000000
v -0.250000 2.250000 2.250000
v 0.250000 2.250000 2.250000
v -0.647501 1.205000 3.295000
v -1.221250 1.278750 3.221250
v 1.073749 1.426250 3.073750
v -0.000000 2.500000 0.500000
v 1.294999 1.205000 2.795001
v -1.295000 1.205000 1.794999
v 1.000000 0.000000 2.500000
v -1.000000 0.000000 1.500000
v 0.999999 1.500000 2.500000
v 1.000000 0.000000 -0.500000
v 0.500000 0.000000 -1.000000
v 1.000000 0.375000 -1.000000
v 0.500000 0.000000 1.000000
v 1.000000 0.375000 1.000000
v -1.000000 0.000000 0.500000
v -1.000000 0.375000 1.000000
v -1.000000 0.375000 -1.000000
v 1.000000 1.500000 -0.499999
v 0.500000 1.500000 -1.000000
v -1.000000 1.500000 1.500000
v -1.000000 1.500000 0.500000
v 0.250000 2.250000 -0.250000
v -0.750000 1.750000 0.750000
v -0.250000 2.250000 -0.250000
v 0.749999 1.750000 0.750000
v 1.295000 1.205000 -0.647499
v 0.647500 1.205000 -1.295000
v -1.295000 1.205000 0.647500
v -1.221250 1.278750 -1.221250
v -1.073750 1.426250 1.073750
v 1.073750 1.426250 -1.073749
v 1.221249 1.278750 1.221251
v 0.500000 0.000000 3.000000
v 1.000000 0.375000 3.000000
v -1.000000 0.375000 3.000000
v 0.499999 1.500000 3.000000
v -0.750000 1.750000 2.750000
v 0.749999 1.750000 2.750000
v 0.647499 1.205000 3.295001
v -1.073750 1.426250 3.073750
v 1.221249 1.278750 3.221251
v -0.000000 2.500000 1.500000
v 1.294999 1.205000 1.795001
v -1.295000 1.205000 2.794999
v 1.000000 0.000000 1.500000
v -1.000000 0.000000 2.500000
v 0.999999 1.500000 1.500000
v 1.000000 0.750000 2.500000
v 0.900000 0.750000 0.000000
v 1.000000 0.375000 2.000000
v 1.000000 1.125000 2.000000
v 0.500000 2.000000 2.000000
v 0.500000 2.000000 1.000000
v 0.749999 1.750000 1.750000
v 0.250000 2.250000 1.250000
v -1.000000 0.750000 2.500000
v -1.000000 0.750000 1.500000
v -1.000000 1.125000 2.000000
v -1.000000 0.375000 2.000000
v -1.147500 1.352500 2.647500
v -1.147500 1.352500 1.647500
v -1.073750 1.426250 2.073750
v -1.221250 1.278750 2.221250
v 1.147499 1.352500 2.647501
v 1.147499 1.352500 1.647501
v 1.221249 1.278750 2.221251
v 1.073749 1.426250 2.073750
v -0.000001 1.278750 3.221250
v -0.000001 1.426250 3.073750
v 0.573749 1.352500 3.147500
v -0.573750 1.352500 3.147500
v -0.000000 2.000000 2.500000
v -0.250000 1.750000 2.750000
v 0.250000 1.750000 2.750000
v -0.500000 0.750000 3.000000
v 0.500000 0.750000 3.000000
v -0.000000 0.375000 3.000000
v -0.000000 1.125000 3.000000
v 1.221250 1.278750 0.000001
v 1.073750 1.426250 0.000001
v 1.147500 1.352500 -0.573749
v 1.147500 1.352500 0.573751
v -0.500000 2.000000 2.000000
v -0.500000 2.000000 1.000000
v -0.250000 2.250000 1.250000
v -0.750000 1.750000 1.750000
v 0.000000 1.278750 -1.221250
v 0.000000 1.426250 -1.073750
v -0.573750 1.352500 -1.147500
v 0.573750 1.352500 -1.147500
v -1.221250 1.278750 -0.000000
v -1.073750 1.426250 -0.000000
v -1.147500 1.352500 -0.573750
v -1.147500 1.352500 0.573750
v 0.500000 2.000000 0.000000
v 0.750000 1.750000 0.250000
v 0.750000 1.750000 -0.250000
v 0.000000 2.000000 -0.500000
v 0.250000 1.750000 -0.750000
v -0.250000 1.750000 -0.750000
v -0.500000 0.750000 -1.000000
v 0.500000 0.750000 -1.000000
v 0.000000 1.125000 -1.000000
v 0.000000 0.375000 -1.000000
v -1.000000 0.750000 -0.500000
v -1.000000 0.750000 0.500000
v -1.000000 0.375000 -0.000000
v -1.000000 1.125000 -0.000000
v 0.000000 0.000000 2.500000
v 0.000000 0.000000 1.500000
v -0.500000 0.000000 2.000000
v 0.500000 0.000000 2.000000
v 1.000000 0.750000 0.500000
v 1.000000 0.750000 -0.500000
v 1.000000 0.375000 0.000000
v 1.000000 1.125000 0.000000
v -0.500000 2.000000 0.000000
v -0.750000 1.750000 -0.250000
v -0.750000 1.750000 0.250000
v -0.500000 0.000000 -0.000000
v 0.500000 0.000000 -0.000000
v 0.000000 0.000000 -0.500000
v 0.000000 0.000000 0.500000
v 0.500000 0.000000 0.500000
v 0.500000 0.000000 -0.500000
v -0.500000 0.000000 -0.500000
v 1.000000 1.125000 -0.500000
v 1.000000 0.375000 -0.500000
v 1.000000 0.375000 0.500000
v 0.500000 0.000000 1.500000
v -0.500000 0.000000 1.500000
v -0.500000 0.000000 2.500000
v -1.000000 1.125000 0.500000
v -1.000000 0.375000 0.500000
v -1.000000 0.375000 -0.500000
v 0.500000 0.375000 -1.000000
v 0.500000 1.125000 -1.000000
v -0.500000 1.125000 -1.000000
v -1.073750 1.426250 0.536875
v -1.073750 1.426250 -0.536875
v -1.221250 1.278750 -0.610625
v 0.536875 1.426250 -1.073750
v -0.536875 1.426250 -1.073750
v -0.610625 1.278750 -1.221250
v -0.750000 1.750000 1.250000
v -0.250000 2.250000 0.750000
v -0.250000 2.250000 1.750000
v 1.073750 1.426250 0.536876
v 1.073750 1.426250 -0.536874
v 1.221250 1.278750 -0.610624
v 0.500000 1.125000 3.000000
v 0.500000 0.375000 3.000000
v -0.500000 0.375000 3.000000
v -0.536875 1.426250 3.073750
v 0.536874 1.426250 3.073750
v 0.610624 1.278750 3.221251
v 1.073749 1.426250 1.573751
v 1.221249 1.278750 1.721251
v 1.221249 1.278750 2.721251
v -1.221250 1.278750 1.721250
v -1.073750 1.426250 1.573750
v -1.073750 1.426250 2.573750
v -1.000000 0.375000 1.500000
v -1.000000 1.125000 1.500000
v -1.000000 1.125000 2.500000
v 0.250000 2.250000 0.750000
v 0.749999 1.750000 1.250000
v 0.749999 1.750000 2.250000
v 1.000000 1.125000 1.500000
v 0.900000 0.750000 -0.500000
v 1.000000 0.375000 2.500000
v 1.000000 1.125000 2.500000
v 0.250000 2.250000 1.750000
v -1.000000 0.375000 2.500000
v -1.221250 1.278750 2.721250
v 1.073749 1.426250 2.573750
v -0.610626 1.278750 3.221250
v -0.500000 1.125000 3.000000
v 1.221250 1.278750 0.610626
v -0.750000 1.750000 2.250000
v 0.610625 1.278750 -1.221250
v -1.221250 1.278750 0.610625
v -0.500000 0.375000 -1.000000
v -1.000000 1.125000 -0.500000
v 0.500000 0.000000 2.500000
v 1.000000 1.125000 0.500000
v -0.500000 0.000000 0.500000
v 0.500000 0.750000 -0.900000
v 0.000000 0.750000 -0.900000
v 0.000000 0.375000 -0.900000
v -0.500000 0.750000 -0.900000
v 0.000000 1.125000 -0.900000
v 0.500000 0.375000 -0.900000
v 0.500000 1.125000 -0.900000
v -0.500000 1.125000 -0.900000
v -0.500000 0.375000 -0.900000
v -0.000000 0.750000 2.900000
v -0.000000 1.125000 2.900000
v -0.500000 0.750000 2.900000
v -0.000000 0.375000 2.900000
v 0.500000 1.125000 2.900000
v 0.500000 0.375000 2.900000
v -0.500000 0.375000 2.900000
v -0.500000 1.125000 2.900000
v 0.900000 0.750000 1.000000
v 0.900000 0.000000 1.500000
v 0.900000 0.000000 2.000000
v 0.900000 0.750000 1.500000
v 0.900000 0.750000 2.000000
v 0.900000 0.375000 2.000000
v 0.899999 1.125000 2.000000
v 0.899999 1.125000 1.000000
v 0.900000 0.000000 1.000000
v 0.899999 1.125000 1.500000
v 0.900000 0.375000 1.500000
v 0.900000 1.125000 0.000000
v 0.900000 0.750000 0.500000
v 0.900000 0.375000 0.000000
v 0.900000 1.125000 -0.500000
v 0.900000 0.375000 -0.500000
v 0.900000 0.375000 0.500000
v 0.900000 1.125000 0.500000
vn 0.0000 -1.0000 0.0000
vn -0.7071 0.7071 0.0000
vn 1.0000 0.0000 0.0000
vn -1.0000 -0.0000 -0.0000
vn 0.0000 0.0000 -1.0000
vn 0.0000 0.7071 -0.7071
vn 0.7071 0.7071 0.0000
vn -0.0000 -0.0000 1.0000
vn -0.0000 0.7071 0.7071
vn 0.0000 1.0000 0.0000
usemtl Material
s off
f 289//1 77//1 3//1 117//1
f 8//2 85//2 88//2
f 288//3 82//3 6//3 78//3
f 287//1 109//1 14//1 135//1
f 286//4 85//4 8//4 81//4
f 285//5 75//5 4//5 119//5
f 5//6 121//6 86//6
f 6//7 82//7 127//7
f 284//2 130//2 12//2 94//2
f 283//6 95//6 10//6 129//6
f 282//2 84//2 17//2 139//2
f 281//7 134//7 11//7 90//7
f 280//8 100//8 17//8 99//8
f 17//9 100//9 139//9
f 279//9 104//9 20//9 103//9
f 278//7 111//7 16//7 105//7
f 277//2 146//2 20//2 104//2
f 276//4 148//4 15//4 137//4
f 275//7 144//7 18//7 102//7
f 274//3 111//3 16//3 98//3
f 273//3 150//3 45//3 136//3
f 271//1 153//1 313//1 316//1
f 271//3 149//3 58//3 153//3
f 270//7 154//7 49//7 140//7
f 269//7 155//7 60//7 156//7
f 268//7 106//7 53//7 157//7
f 267//4 158//4 46//4 99//4
f 266//4 159//4 61//4 160//4
f 265//4 110//4 57//4 161//4
f 264//2 162//2 51//2 142//2
f 263//2 163//2 62//2 164//2
f 262//2 108//2 55//2 165//2
f 261//7 166//7 52//7 143//7
f 260//7 167//7 63//7 168//7
f 259//7 149//7 58//7 169//7
f 258//9 170//9 50//9 141//9
f 257//9 171//9 64//9 172//9
f 256//9 142//9 51//9 173//9
f 48//9 174//9 101//9
f 48//9 175//9 174//9
f 47//9 138//9 176//9
f 255//8 177//8 46//8 137//8
f 177//3 255//3 305//3 301//3
f 253//8 138//8 47//8 180//8
f 252//7 181//7 37//7 128//7
f 251//7 182//7 66//7 183//7
f 250//7 96//7 43//7 184//7
f 249//2 185//2 48//2 101//2
f 248//2 186//2 67//2 187//2
f 247//2 122//2 31//2 188//2
f 246//6 189//6 38//6 91//6
f 245//6 190//6 68//6 191//6
f 244//6 133//6 42//6 192//6
f 243//2 92//2 39//2 193//2
f 242//2 195//2 69//2 194//2
f 241//2 196//2 41//2 132//2
f 36//7 197//7 89//7
f 36//7 198//7 197//7
f 29//7 120//7 199//7
f 33//6 200//6 124//6
f 33//6 201//6 200//6
f 30//6 83//6 202//6
f 240//5 203//5 28//5 81//5
f 285//3 203//3 293//3 298//3
f 238//5 113//5 22//5 206//5
f 237//4 207//4 28//4 119//4
f 236//4 208//4 71//4 209//4
f 235//4 123//4 32//4 210//4
f 234//1 211//1 44//1 97//1
f 233//1 212//1 72//1 213//1
f 232//1 147//1 56//1 214//1
f 231//3 215//3 25//3 116//3
f 215//5 231//5 323//5 319//5
f 229//3 120//3 29//3 218//3
f 35//2 219//2 126//2
f 35//2 220//2 219//2
f 32//2 123//2 221//2
f 228//1 222//1 26//1 79//1
f 227//1 223//1 73//1 224//1
f 226//1 115//1 24//1 225//1
f 223//1 226//1 225//1 73//1
f 21//1 74//1 226//1 223//1
f 74//1 2//1 115//1 226//1
f 113//1 227//1 224//1 22//1
f 1//1 112//1 227//1 113//1
f 112//1 21//1 223//1 227//1
f 75//1 228//1 79//1 4//1
f 22//1 224//1 228//1 75//1
f 224//1 73//1 222//1 228//1
f 221//2 125//2 34//2
f 221//2 123//2 125//2
f 123//2 7//2 125//2
f 219//2 221//2 34//2
f 219//2 220//2 221//2
f 220//2 32//2 221//2
f 126//2 87//2 9//2
f 126//2 219//2 87//2
f 219//2 34//2 87//2
f 216//8 229//8 321//8 272//8
f 23//3 76//3 229//3 216//3
f 76//3 5//3 120//3 229//3
f 112//3 230//3 217//3 21//3
f 1//3 114//3 230//3 112//3
f 114//3 23//3 216//3 230//3
f 74//3 231//3 116//3 2//3
f 21//3 217//3 231//3 74//3
f 217//10 230//10 322//10 320//10
f 212//1 232//1 214//1 72//1
f 24//1 115//1 232//1 212//1
f 115//1 2//1 147//1 232//1
f 110//1 233//1 213//1 57//1
f 3//1 77//1 233//1 110//1
f 77//1 24//1 212//1 233//1
f 148//1 234//1 97//1 15//1
f 57//1 213//1 234//1 148//1
f 213//1 72//1 211//1 234//1
f 208//4 235//4 210//4 71//4
f 27//4 80//4 235//4 208//4
f 80//4 7//4 123//4 235//4
f 117//4 236//4 209//4 26//4
f 3//4 118//4 236//4 117//4
f 118//4 27//4 208//4 236//4
f 79//4 237//4 119//4 4//4
f 26//4 209//4 237//4 79//4
f 209//4 71//4 207//4 237//4
f 206//10 285//10 298//10 292//10
f 23//5 114//5 238//5 204//5
f 114//5 1//5 113//5 238//5
f 121//5 239//5 205//5 30//5
f 5//5 76//5 239//5 121//5
f 76//5 23//5 204//5 239//5
f 83//5 240//5 81//5 8//5
f 30//5 205//5 240//5 83//5
f 239//4 204//4 290//4 296//4
f 202//6 88//6 35//6
f 202//6 83//6 88//6
f 83//6 8//6 88//6
f 200//6 202//6 35//6
f 200//6 201//6 202//6
f 201//6 30//6 202//6
f 124//6 126//6 9//6
f 124//6 200//6 126//6
f 200//6 35//6 126//6
f 199//7 86//7 33//7
f 199//7 120//7 86//7
f 120//7 5//7 86//7
f 197//7 199//7 33//7
f 197//7 198//7 199//7
f 198//7 29//7 199//7
f 89//7 124//7 9//7
f 89//7 197//7 124//7
f 197//7 33//7 124//7
f 194//2 69//2 196//2 241//2
f 32//2 194//2 241//2 123//2
f 123//2 241//2 132//2 7//2
f 93//2 40//2 195//2 242//2
f 8//2 93//2 242//2 85//2
f 85//2 242//2 194//2 32//2
f 131//2 13//2 92//2 243//2
f 40//2 131//2 243//2 195//2
f 195//2 243//2 193//2 69//2
f 190//6 244//6 192//6 68//6
f 30//6 121//6 244//6 190//6
f 121//6 5//6 133//6 244//6
f 93//6 245//6 191//6 40//6
f 8//6 83//6 245//6 93//6
f 83//6 30//6 190//6 245//6
f 131//6 246//6 91//6 13//6
f 40//6 191//6 246//6 131//6
f 191//6 68//6 189//6 246//6
f 186//2 247//2 188//2 67//2
f 34//2 125//2 247//2 186//2
f 125//2 7//2 122//2 247//2
f 106//2 248//2 187//2 53//2
f 9//2 87//2 248//2 106//2
f 87//2 34//2 186//2 248//2
f 144//2 249//2 101//2 18//2
f 53//2 187//2 249//2 144//2
f 187//2 67//2 185//2 249//2
f 182//7 250//7 184//7 66//7
f 29//7 82//7 250//7 182//7
f 82//7 6//7 96//7 250//7
f 133//7 251//7 183//7 42//7
f 5//7 120//7 251//7 133//7
f 120//7 29//7 182//7 251//7
f 95//7 252//7 128//7 10//7
f 42//7 183//7 252//7 95//7
f 183//7 66//7 181//7 252//7
f 180//1 280//1 306//1 300//1
f 45//8 98//8 253//8 178//8
f 98//8 16//8 138//8 253//8
f 135//8 254//8 179//8 44//8
f 14//8 136//8 254//8 135//8
f 136//8 45//8 178//8 254//8
f 97//8 255//8 137//8 15//8
f 44//8 179//8 255//8 97//8
f 178//4 253//4 303//4 70//4
f 176//9 140//9 49//9
f 176//9 138//9 140//9
f 138//9 16//9 140//9
f 174//9 176//9 49//9
f 174//9 175//9 176//9
f 175//9 47//9 176//9
f 101//9 102//9 18//9
f 101//9 174//9 102//9
f 174//9 49//9 102//9
f 171//9 256//9 173//9 64//9
f 47//9 100//9 256//9 171//9
f 100//9 17//9 142//9 256//9
f 105//9 257//9 172//9 52//9
f 16//9 138//9 257//9 105//9
f 138//9 47//9 171//9 257//9
f 143//9 258//9 141//9 19//9
f 52//9 172//9 258//9 143//9
f 172//9 64//9 170//9 258//9
f 167//7 259//7 169//7 63//7
f 43//7 96//7 259//7 167//7
f 96//7 6//7 149//7 259//7
f 145//7 260//7 168//7 54//7
f 11//7 134//7 260//7 145//7
f 134//7 43//7 167//7 260//7
f 107//7 261//7 143//7 19//7
f 54//7 168//7 261//7 107//7
f 168//7 63//7 166//7 261//7
f 163//2 262//2 165//2 62//2
f 41//2 94//2 262//2 163//2
f 94//2 12//2 108//2 262//2
f 122//2 263//2 164//2 31//2
f 7//2 132//2 263//2 122//2
f 132//2 41//2 163//2 263//2
f 84//2 264//2 142//2 17//2
f 31//2 164//2 264//2 84//2
f 164//2 62//2 162//2 264//2
f 159//4 265//4 161//4 61//4
f 27//4 118//4 265//4 159//4
f 118//4 3//4 110//4 265//4
f 122//4 266//4 160//4 31//4
f 7//4 80//4 266//4 122//4
f 80//4 27//4 159//4 266//4
f 84//4 267//4 99//4 17//4
f 31//4 160//4 267//4 84//4
f 160//4 61//4 158//4 267//4
f 155//7 268//7 157//7 60//7
f 36//7 89//7 268//7 155//7
f 89//7 9//7 106//7 268//7
f 149//7 269//7 156//7 58//7
f 6//7 127//7 269//7 149//7
f 127//7 36//7 155//7 269//7
f 111//7 270//7 140//7 16//7
f 58//7 156//7 270//7 111//7
f 156//7 60//7 154//7 270//7
f 152//5 56//5 309//5 312//5
f 25//8 78//8 314//8 307//8
f 78//3 6//3 149//3 271//3
f 59//5 152//5 312//5 311//5
f 56//10 147//10 308//10 309//10
f 116//8 25//8 307//8 65//8
f 109//3 273//3 136//3 14//3
f 56//3 152//3 273//3 109//3
f 152//3 59//3 150//3 273//3
f 150//3 274//3 98//3 45//3
f 59//3 153//3 274//3 150//3
f 153//3 58//3 111//3 274//3
f 154//7 275//7 102//7 49//7
f 60//7 157//7 275//7 154//7
f 157//7 53//7 144//7 275//7
f 158//4 276//4 137//4 46//4
f 61//4 161//4 276//4 158//4
f 161//4 57//4 148//4 276//4
f 162//2 277//2 104//2 51//2
f 62//2 165//2 277//2 162//2
f 165//2 55//2 146//2 277//2
f 166//7 278//7 105//7 52//7
f 63//7 169//7 278//7 166//7
f 169//7 58//7 111//7 278//7
f 170//9 279//9 103//9 50//9
f 64//9 173//9 279//9 170//9
f 173//9 51//9 104//9 279//9
f 139//9 175//9 48//9
f 139//9 100//9 175//9
f 100//9 47//9 175//9
f 177//8 280//8 99//8 46//8
f 179//10 254//10 304//10 302//10
f 180//8 47//8 100//8 280//8
f 181//7 281//7 90//7 37//7
f 66//7 184//7 281//7 181//7
f 184//7 43//7 134//7 281//7
f 185//2 282//2 139//2 48//2
f 67//2 188//2 282//2 185//2
f 188//2 31//2 84//2 282//2
f 189//6 283//6 129//6 38//6
f 68//6 192//6 283//6 189//6
f 192//6 42//6 95//6 283//6
f 193//2 39//2 130//2 284//2
f 69//2 193//2 284//2 196//2
f 196//2 284//2 94//2 41//2
f 127//7 198//7 36//7
f 127//7 82//7 198//7
f 82//7 29//7 198//7
f 86//6 201//6 33//6
f 86//6 121//6 201//6
f 121//6 30//6 201//6
f 203//5 285//5 119//5 28//5
f 240//1 205//1 294//1 297//1
f 206//5 22//5 75//5 285//5
f 207//4 286//4 81//4 28//4
f 71//4 210//4 286//4 207//4
f 210//4 32//4 85//4 286//4
f 211//1 287//1 135//1 44//1
f 72//1 214//1 287//1 211//1
f 214//1 56//1 109//1 287//1
f 215//3 288//3 78//3 25//3
f 288//5 215//5 319//5 324//5
f 218//3 29//3 82//3 288//3
f 88//2 220//2 35//2
f 88//2 85//2 220//2
f 85//2 32//2 220//2
f 222//1 289//1 117//1 26//1
f 73//1 225//1 289//1 222//1
f 225//1 24//1 77//1 289//1
f 296//5 290//5 291//5 294//5
f 290//5 295//5 292//5 291//5
f 294//5 291//5 293//5 297//5
f 291//5 292//5 298//5 293//5
f 205//1 239//1 296//1 294//1
f 204//4 238//4 295//4 290//4
f 203//3 240//3 297//3 293//3
f 238//10 206//10 292//10 295//10
f 304//8 70//8 299//8 302//8
f 70//8 303//8 300//8 299//8
f 302//8 299//8 301//8 305//8
f 299//8 300//8 306//8 301//8
f 253//1 180//1 300//1 303//1
f 255//10 179//10 302//10 305//10
f 254//4 178//4 70//4 304//4
f 280//3 177//3 301//3 306//3
f 317//3 310//3 311//3 312//3
f 310//3 316//3 313//3 311//3
f 307//3 314//3 316//3 310//3
f 308//3 317//3 312//3 309//3
f 315//3 65//3 317//3 308//3
f 65//3 307//3 310//3 317//3
f 2//8 116//8 65//8 315//8
f 147//10 2//10 315//10 308//10
f 78//1 271//1 316//1 314//1
f 153//5 59//5 311//5 313//5
f 322//3 272//3 151//3 320//3
f 272//3 321//3 318//3 151//3
f 320//3 151//3 319//3 323//3
f 151//3 318//3 324//3 319//3
f 229//1 218//1 318//1 321//1
f 218//1 288//1 324//1 318//1
f 231//10 217//10 320//10 323//10
f 230//8 216//8 272//8 322//8
